<svg width="105" height="71" viewBox="0 0 105 71" fill="none" xmlns="http://www.w3.org/2000/svg">
<path d="M33.3156 10.0938C26.8781 10.0938 21.8156 12.375 18.1281 16.9375C14.4406 21.5 12.5969 27.7969 12.5969 35.8281C12.5969 44.2344 14.3625 50.5938 17.8937 54.9062C21.4562 59.2188 26.5969 61.375 33.3156 61.375C36.2219 61.375 39.0344 61.0938 41.7531 60.5312C44.4719 59.9375 47.3 59.1875 50.2375 58.2812V67.8906C44.8625 69.9219 38.7687 70.9375 31.9562 70.9375C21.925 70.9375 14.2219 67.9062 8.84687 61.8438C3.47187 55.75 0.784374 47.0469 0.784374 35.7344C0.784374 28.6094 2.08125 22.375 4.675 17.0312C7.3 11.6875 11.0812 7.59375 16.0187 4.75C20.9562 1.90625 26.7531 0.484375 33.4094 0.484375C40.4094 0.484375 46.8781 1.95312 52.8156 4.89062L48.7844 14.2188C46.4719 13.125 44.0187 12.1719 41.425 11.3594C38.8625 10.5156 36.1594 10.0938 33.3156 10.0938ZM104.669 51.3906C104.669 57.4844 102.466 62.2656 98.0594 65.7344C93.6531 69.2031 87.575 70.9375 79.825 70.9375C72.075 70.9375 65.7313 69.7344 60.7938 67.3281V56.7344C63.9188 58.2031 67.2313 59.3594 70.7313 60.2031C74.2625 61.0469 77.5438 61.4688 80.575 61.4688C85.0125 61.4688 88.2781 60.625 90.3719 58.9375C92.4969 57.25 93.5594 54.9844 93.5594 52.1406C93.5594 49.5781 92.5906 47.4062 90.6531 45.625C88.7156 43.8438 84.7156 41.7344 78.6531 39.2969C72.4031 36.7656 67.9969 33.875 65.4344 30.625C62.8719 27.375 61.5906 23.4688 61.5906 18.9062C61.5906 13.1875 63.6219 8.6875 67.6844 5.40625C71.7469 2.125 77.2 0.484375 84.0438 0.484375C90.6063 0.484375 97.1375 1.92188 103.638 4.79688L100.075 13.9375C93.9813 11.375 88.5438 10.0938 83.7625 10.0938C80.1375 10.0938 77.3875 10.8906 75.5125 12.4844C73.6375 14.0469 72.7 16.125 72.7 18.7188C72.7 20.5 73.075 22.0312 73.825 23.3125C74.575 24.5625 75.8094 25.75 77.5281 26.875C79.2469 28 82.3406 29.4844 86.8094 31.3281C91.8406 33.4219 95.5281 35.375 97.8719 37.1875C100.216 39 101.934 41.0469 103.028 43.3281C104.122 45.6094 104.669 48.2969 104.669 51.3906Z" fill="#EC750B"/>
</svg>
